<svg width="72" height="72" viewBox="0 0 72 72" fill="none" xmlns="http://www.w3.org/2000/svg">
  <rect x="16" y="-8" width="48" height="48" rx="24" transform="rotate(30 16 -8)" fill="#F4F6F7"/>
  <path fill-rule="evenodd" clip-rule="evenodd" d="M32.0153 23C29.9977 23 28.2064 24.2911 27.5684 26.2052L24.8868 34.25H22.75C20.6789 34.25 19 35.9289 19 38C19 39.7747 20.2329 41.2615 21.8889 41.6507C21.2541 42.4504 20.875 43.4622 20.875 44.5625V52.0625C20.875 53.2871 21.6576 54.3289 22.75 54.715V59.5625C22.75 62.1513 24.8487 64.25 27.4375 64.25C30.0263 64.25 32.125 62.1513 32.125 59.5625V54.875H52.75V59.5625C52.75 62.1513 54.8487 64.25 57.4375 64.25C60.0263 64.25 62.125 62.1513 62.125 59.5625V54.715C63.2174 54.3289 64 53.2871 64 52.0625V44.5625C64 43.4622 63.6209 42.4504 62.9861 41.6507C64.6421 41.2615 65.875 39.7747 65.875 38C65.875 35.9289 64.1961 34.25 62.125 34.25H59.6413L56.4285 25.9885C55.7278 24.1868 53.9929 23 52.0597 23H32.0153ZM59.8279 39.903L54.681 26.6681C54.2606 25.5871 53.2197 24.875 52.0597 24.875H32.0153C30.8048 24.875 29.73 25.6496 29.3472 26.7981L24.9761 39.9113C25.1682 39.8873 25.3639 39.875 25.5625 39.875H59.3125C59.4867 39.875 59.6587 39.8845 59.8279 39.903ZM22.75 36.125H24.2618L23.0118 39.875H22.75C21.7145 39.875 20.875 39.0355 20.875 38C20.875 36.9645 21.7145 36.125 22.75 36.125ZM62.125 39.875H61.8288L60.3705 36.125H62.125C63.1605 36.125 64 36.9645 64 38C64 39.0355 63.1605 39.875 62.125 39.875ZM22.75 44.5625C22.75 43.0092 24.0092 41.75 25.5625 41.75H59.3125C60.8658 41.75 62.125 43.0092 62.125 44.5625V52.0625C62.125 52.5803 61.7053 53 61.1875 53H23.6875C23.1697 53 22.75 52.5803 22.75 52.0625V44.5625ZM24.625 59.5625V54.875H30.25V59.5625C30.25 61.1158 28.9908 62.375 27.4375 62.375C25.8842 62.375 24.625 61.1158 24.625 59.5625ZM54.625 59.5625V54.875H60.25V59.5625C60.25 61.1158 58.9908 62.375 57.4375 62.375C55.8842 62.375 54.625 61.1158 54.625 59.5625ZM37.75 46.4375C37.2322 46.4375 36.8125 46.8572 36.8125 47.375C36.8125 47.8928 37.2322 48.3125 37.75 48.3125H47.125C47.6428 48.3125 48.0625 47.8928 48.0625 47.375C48.0625 46.8572 47.6428 46.4375 47.125 46.4375H37.75Z" fill="#5E3380"/>
  <path d="M30.75 47.8125C30.75 49.3658 29.4908 50.625 27.9375 50.625C26.3842 50.625 25.125 49.3658 25.125 47.8125C25.125 46.2592 26.3842 45 27.9375 45C29.4908 45 30.75 46.2592 30.75 47.8125Z" fill="#AE99BF"/>
  <path d="M56.0625 50.625C57.6158 50.625 58.875 49.3658 58.875 47.8125C58.875 46.2592 57.6158 45 56.0625 45C54.5092 45 53.25 46.2592 53.25 47.8125C53.25 49.3658 54.5092 50.625 56.0625 50.625Z" fill="#AE99BF"/>
  <path d="M36.375 28.875C36.375 27.8395 37.2145 27 38.25 27H45.75C46.7855 27 47.625 27.8395 47.625 28.875C47.625 29.9105 46.7855 30.75 45.75 30.75H38.25C37.2145 30.75 36.375 29.9105 36.375 28.875Z" fill="#AE99BF"/>
</svg>
