<svg width="72" height="72" viewBox="0 0 72 72" fill="none" xmlns="http://www.w3.org/2000/svg">
  <rect x="16" y="-8" width="48" height="48" rx="24" transform="rotate(30 16 -8)" fill="#F4F6F7"/>
  <path d="M67.2831 41.4872L68.25 42.9375H55.125C53.0539 42.9375 51.375 41.2586 51.375 39.1875V37.3125H59.4827C62.6172 37.3125 65.5444 38.8791 67.2831 41.4872Z" fill="#AE99BF"/>
  <path fill-rule="evenodd" clip-rule="evenodd" d="M35.2076 36.375L31.9933 25.125L36.2031 25.125C37.1601 25.125 38.0515 25.6116 38.569 26.4166L44.9708 36.375H35.2076ZM33.2576 36.375L30.1905 25.6401C29.8482 24.4423 30.7476 23.25 31.9933 23.25H36.2031C37.7981 23.25 39.2837 24.061 40.1462 25.4027L47.1998 36.375H59.4827C62.9307 36.375 66.1506 38.0982 68.0632 40.9672L68.6837 41.8979C69.0122 42.3907 69.1875 42.9697 69.1875 43.562V46.6875C69.1875 48.2408 67.9283 49.5 66.375 49.5H43.2374L36.3881 62.0571C35.5667 63.563 33.9883 64.5 32.273 64.5H28.3376C27.0364 64.5 26.1308 63.2071 26.5755 61.9842L31.1152 49.5L23.25 49.5C18.5901 49.5 14.8125 45.7224 14.8125 41.0625V31.6875C14.8125 30.1342 16.0717 28.875 17.625 28.875H21.0131C22.1855 28.875 23.2349 29.6022 23.6465 30.7L25.7747 36.375H33.2576ZM33.7933 38.25L24.4753 38.25L21.8909 31.3583C21.7537 30.9924 21.4039 30.75 21.0131 30.75H17.625C17.1072 30.75 16.6875 31.1697 16.6875 31.6875V41.0625C16.6875 44.6869 19.6256 47.625 23.25 47.625L31.797 47.625L33.3936 43.2342C33.6631 42.4933 34.3673 42 35.1557 42H44.1698C45.5931 42 46.4974 43.5234 45.8159 44.7728L44.2602 47.625H66.375C66.8928 47.625 67.3125 47.2053 67.3125 46.6875V43.875H55.125C52.5362 43.875 50.4375 41.7763 50.4375 39.1875V38.25L48.4051 38.25H33.7933ZM52.3125 38.25V39.1875C52.3125 40.7408 53.5717 42 55.125 42H66.4983C64.9328 39.657 62.3009 38.25 59.4827 38.25H52.3125ZM44.1698 43.875H35.1557L28.3376 62.625H32.273C33.3022 62.625 34.2492 62.0628 34.7421 61.1593L44.1698 43.875Z" fill="#5E3380"/>
</svg>
