<svg width="72" height="72" viewBox="0 0 72 72" fill="none" xmlns="http://www.w3.org/2000/svg">
  <rect x="16" y="-8" width="48" height="48" rx="24" transform="rotate(30 16 -8)" fill="#F4F6F7"/>
  <path fill-rule="evenodd" clip-rule="evenodd" d="M17.75 21.375C17.2322 21.375 16.8125 21.7947 16.8125 22.3125V63.5625C16.8125 64.0803 17.2322 64.5 17.75 64.5H40.25C40.7678 64.5 41.1875 64.0803 41.1875 63.5625V48.0626C41.1875 47.7086 40.9881 47.3848 40.6721 47.2254L27.2053 40.4355C25.0482 39.3478 23.6875 37.138 23.6875 34.7221V34.511C23.6875 31.0938 26.4577 28.3235 29.875 28.3235C33.2923 28.3235 36.0625 31.0938 36.0625 34.511V35.1434C36.0625 35.2754 36.1695 35.3824 36.3015 35.3824H40.25C40.7678 35.3824 41.1875 34.9626 41.1875 34.4449V22.3125C41.1875 21.7947 40.7678 21.375 40.25 21.375H17.75ZM14.9375 22.3125C14.9375 20.7592 16.1967 19.5 17.75 19.5H40.25C41.8033 19.5 43.0625 20.7592 43.0625 22.3125V34.4449C43.0625 35.9982 41.8033 37.2574 40.25 37.2574H36.3015C35.134 37.2574 34.1875 36.3109 34.1875 35.1434V34.511C34.1875 32.1293 32.2567 30.1985 29.875 30.1985C27.4933 30.1985 25.5625 32.1293 25.5625 34.511V34.7221C25.5625 36.43 26.5244 37.9923 28.0495 38.7613L41.5162 45.5512C42.4644 46.0293 43.0625 47.0007 43.0625 48.0626V63.5625C43.0625 65.1158 41.8033 66.375 40.25 66.375H17.75C16.1967 66.375 14.9375 65.1158 14.9375 63.5625V22.3125Z" fill="#5E3380"/>
  <rect width="15" height="3.75" rx="1.875" transform="matrix(1 0 0 -1 21.5 55.0625)" fill="#AE99BF"/>
  <rect width="15" height="3.75" rx="1.875" transform="matrix(1 0 0 -1 21.5 60.6875)" fill="#AE99BF"/>
</svg>
