<svg width="72" height="72" viewBox="0 0 72 72" fill="none" xmlns="http://www.w3.org/2000/svg">
  <rect x="16" y="-8" width="48" height="48" rx="24" transform="rotate(30 16 -8)" fill="#F4F6F7"/>
  <path fill-rule="evenodd" clip-rule="evenodd" d="M25.125 21.375C23.5717 21.375 22.3125 22.6342 22.3125 24.1875V28.875H61.6875V24.1875C61.6875 22.6342 60.4283 21.375 58.875 21.375H25.125Z" fill="#AE99BF"/>
  <path fill-rule="evenodd" clip-rule="evenodd" d="M21.375 27C19.8217 27 18.5625 28.2592 18.5625 29.8125V56.0625C18.5625 57.6158 19.8217 58.875 21.375 58.875H37.188L36.4849 64.5H32.625V66.375H51.375V64.5H47.5151L46.812 58.875H62.625C64.1783 58.875 65.4375 57.6158 65.4375 56.0625V29.8125C65.4375 28.2592 64.1783 27 62.625 27H21.375ZM44.9224 58.875H39.0776L38.3745 64.5H45.6255L44.9224 58.875ZM46.5776 57H62.625C63.1428 57 63.5625 56.5803 63.5625 56.0625V48.5625H20.4375V56.0625C20.4375 56.5803 20.8572 57 21.375 57H37.4224H46.5776ZM20.4375 29.8125C20.4375 29.2947 20.8572 28.875 21.375 28.875H62.625C63.1428 28.875 63.5625 29.2947 63.5625 29.8125V46.6875H20.4375V29.8125Z" fill="#5E3380"/>
  <circle cx="42" cy="52.3125" r="1.875" fill="#5E3380"/>
</svg>
