<svg width="68" height="72" viewBox="0 0 68 72" fill="none" xmlns="http://www.w3.org/2000/svg">
  <rect x="16" y="-8" width="48" height="48" rx="24" transform="rotate(30 16 -8)" fill="#F4F6F7"/>
  <path fill-rule="evenodd" clip-rule="evenodd" d="M24.3052 33.1792C24.5012 33.6584 24.2717 34.2058 23.7925 34.4019L16.875 37.2318L16.1651 35.4964L23.0825 32.6665C23.5617 32.4704 24.1092 32.7 24.3052 33.1792ZM16.875 64.3537L16.875 37.2318L16.1651 35.4964C15.4604 35.7846 15 36.4704 15 37.2318V64.9122C15 65.9784 16.0811 66.7043 17.0679 66.3005L27.1875 62.1607L38.4375 66.763L49.6875 62.1607L59.807 66.3005C60.7939 66.7043 61.875 65.9784 61.875 64.9122V37.2318C61.875 36.4704 61.4146 35.7846 60.7099 35.4964L53.7925 32.6665C53.3132 32.4704 52.7658 32.7 52.5698 33.1792C52.3738 33.6584 52.6033 34.2058 53.0825 34.4019L60 37.2318V64.3537L50.625 60.5184V41.3751C50.625 40.8573 50.2053 40.4376 49.6875 40.4376C49.1697 40.4376 48.75 40.8573 48.75 41.3751V60.5184L39.375 64.3537V46.0626C39.375 45.5448 38.9553 45.1251 38.4375 45.1251C37.9197 45.1251 37.5 45.5448 37.5 46.0626V64.3537L28.125 60.5184V41.3751C28.125 40.8573 27.7053 40.4376 27.1875 40.4376C26.6697 40.4376 26.25 40.8573 26.25 41.3751V60.5184L16.875 64.3537Z" fill="#5E3380"/>
  <path d="M44.3764 23.7913C44.6253 23.6846 44.877 23.9363 44.7703 24.1852L41.0882 32.7767L35.7849 27.4734L44.3764 23.7913Z" fill="#5E3380"/>
  <path fill-rule="evenodd" clip-rule="evenodd" d="M38.4375 43.25C45.6862 43.25 51.5625 37.3737 51.5625 30.125C51.5625 22.8763 45.6862 17 38.4375 17C31.1888 17 25.3125 22.8763 25.3125 30.125C25.3125 37.3737 31.1888 43.25 38.4375 43.25ZM44.7703 24.1852C44.877 23.9363 44.6253 23.6846 44.3764 23.7913L35.7849 27.4734L41.0882 32.7767L44.7703 24.1852Z" fill="#AE99BF"/>
  <path d="M32.1053 36.0648C31.9986 36.3137 32.2503 36.5654 32.4992 36.4587L41.0906 32.7767L35.7873 27.4734L32.1053 36.0648Z" fill="white"/>
</svg>
