<svg width="72" height="72" viewBox="0 0 72 72" fill="none" xmlns="http://www.w3.org/2000/svg">
  <rect x="16" y="-8" width="48" height="48" rx="24" transform="rotate(30 16 -8)" fill="#F4F6F7"/>
  <path opacity="0.5" d="M41.6875 20.4657C41.6875 20.1093 42.1184 19.9309 42.3703 20.1828L46.375 24.1875L50.3797 28.1922C50.6316 28.4441 50.4532 28.875 50.0968 28.875H42.0875C41.8666 28.875 41.6875 28.6959 41.6875 28.475V20.4657Z" fill="#5E3380"/>
  <path fill-rule="evenodd" clip-rule="evenodd" d="M20.6875 17C19.1342 17 17.875 18.2592 17.875 19.8125V33.875C17.875 34.3928 18.2947 34.8125 18.8125 34.8125C19.3303 34.8125 19.75 34.3928 19.75 33.875V19.8125C19.75 19.2947 20.1697 18.875 20.6875 18.875H50.6875C51.2053 18.875 51.625 19.2947 51.625 19.8125V33.875C51.625 34.3928 52.0447 34.8125 52.5625 34.8125C53.0803 34.8125 53.5 34.3928 53.5 33.875V19.8125C53.5 18.2592 52.2408 17 50.6875 17H20.6875ZM19.75 59.1875C19.75 58.6697 19.3303 58.25 18.8125 58.25C18.2947 58.25 17.875 58.6697 17.875 59.1875V64.8125C17.875 66.3658 19.1342 67.625 20.6875 67.625H50.6875C52.2408 67.625 53.5 66.3658 53.5 64.8125V59.1875C53.5 58.6697 53.0803 58.25 52.5625 58.25C52.0447 58.25 51.625 58.6697 51.625 59.1875V64.8125C51.625 65.3303 51.2053 65.75 50.6875 65.75H20.6875C20.1697 65.75 19.75 65.3303 19.75 64.8125V59.1875Z" fill="#5E3380"/>
  <path fill-rule="evenodd" clip-rule="evenodd" d="M18.8125 38C17.2592 38 16 39.2592 16 40.8125V52.0625C16 53.6158 17.2592 54.875 18.8125 54.875H52.5625C54.1158 54.875 55.375 53.6158 55.375 52.0625V40.8125C55.375 39.2592 54.1158 38 52.5625 38H18.8125ZM26.6396 50.5H24.6342C24.5549 50.5 24.5071 50.4121 24.5502 50.3456L26.887 46.7399C26.9083 46.7069 26.9084 46.6645 26.8872 46.6314L24.6522 43.1541C24.6094 43.0875 24.6572 43 24.7363 43H26.7936C26.8286 43 26.861 43.0183 26.8791 43.0482L28.0419 44.9699C28.0807 45.0341 28.1738 45.0342 28.2128 44.9702L29.3853 43.0479C29.4034 43.0182 29.4358 43 29.4707 43H31.4761C31.5553 43 31.6031 43.0878 31.5601 43.1543L29.326 46.6101C29.3046 46.6431 29.3046 46.6855 29.3259 46.7185L31.6634 50.3458C31.7063 50.4124 31.6586 50.5 31.5794 50.5H29.5221C29.4873 50.5 29.4549 50.4819 29.4368 50.4521L28.1709 48.3786C28.132 48.3148 28.0395 48.3147 28.0004 48.3783L26.7248 50.4524C26.7066 50.482 26.6743 50.5 26.6396 50.5ZM34.3759 50.5H32.619C32.5638 50.5 32.519 50.4552 32.519 50.4V43.1C32.519 43.0448 32.5638 43 32.619 43H34.5734C34.6087 43 34.6414 43.0186 34.6594 43.049L36.2644 45.7583C36.3031 45.8237 36.3977 45.8237 36.4364 45.7583L38.0413 43.049C38.0594 43.0186 38.0921 43 38.1274 43H40.0818C40.137 43 40.1818 43.0448 40.1818 43.1V50.4C40.1818 50.4552 40.137 50.5 40.0818 50.5H38.294C38.2388 50.5 38.194 50.4552 38.194 50.4V46.5401C38.194 46.4398 38.0627 46.402 38.0093 46.4869L36.3613 49.1111C36.3545 49.122 36.3426 49.1286 36.3298 49.1286C36.317 49.1286 36.305 49.122 36.2982 49.1111L34.6605 46.5078C34.6071 46.4229 34.4759 46.4607 34.4759 46.5611V50.4C34.4759 50.4552 34.4311 50.5 34.3759 50.5ZM46.8502 50.5H41.5606C41.5054 50.5 41.4606 50.4552 41.4606 50.4V43.1C41.4606 43.0448 41.5054 43 41.5606 43H43.3587C43.4139 43 43.4587 43.0448 43.4587 43.1V48.5786C43.4587 48.6338 43.5035 48.6786 43.5587 48.6786H46.8502C46.9054 48.6786 46.9502 48.7233 46.9502 48.7786V50.4C46.9502 50.4552 46.9054 50.5 46.8502 50.5Z" fill="#AE99BF"/>
</svg>
