<svg width="133" height="35" viewBox="0 0 133 35" fill="none" xmlns="http://www.w3.org/2000/svg">
  <path d="M11.7016 20.5481C11.7016 27.3639 6.5947 32.9936 0 33.8179L11.4804 18.1354C11.6212 18.9195 11.7016 19.7237 11.7016 20.5481Z" fill="#5E3380"/>
  <path d="M24.1465 10.2339C24.0661 9.95238 23.9655 9.69101 23.8449 9.42963C22.6385 6.61482 19.884 4.8053 16.828 4.8053C16.1243 4.8053 15.4407 4.90583 14.7772 5.08678C12.7264 5.66985 10.9772 7.11747 10.0121 9.04762C9.99199 9.10794 9.93167 9.14815 9.87136 9.16826C9.28829 9.3291 8.72533 9.57037 8.18247 9.89207C7.86078 10.073 7.55919 10.2942 7.27771 10.5355C7.37824 10.5355 7.45866 10.5355 7.55919 10.5355C7.57929 10.5355 7.5994 10.5355 7.5994 10.5355C7.69993 10.5355 7.80046 10.5355 7.88088 10.5556H7.92109C8.14226 10.5757 8.36342 10.6159 8.58459 10.6762C9.28829 10.8974 9.87136 11.2995 10.3137 11.8624L10.3338 11.8825C10.374 11.9429 10.4142 12.0032 10.4745 12.0635L10.4946 12.0836C11.3391 13.2899 11.9624 14.5968 12.3444 15.9841C12.847 17.4518 13.1084 19.0402 13.1084 20.6889C13.1084 26.9016 9.22797 32.2497 3.7793 34.401C7.74014 33.5968 11.5401 32.1693 15.0989 30.1386C16.1042 29.5555 17.1094 28.9323 18.0544 28.2688C18.2555 28.128 18.4364 27.9873 18.6375 27.8466H18.6576C20.5676 26.419 22.156 24.5291 23.2417 22.3979C24.3878 20.1661 24.9708 17.7534 24.9708 15.2402C24.9507 13.5111 24.6893 11.8423 24.1465 10.2339ZM16.1645 10.2138C15.9835 10.3746 15.7624 10.5153 15.5211 10.5757C15.3803 10.6159 15.2396 10.636 15.0989 10.636C14.2544 10.636 13.5507 9.95238 13.5507 9.08783C13.5507 9.04762 13.5507 9.00741 13.5507 8.9672C13.611 8.16297 14.2946 7.53969 15.0989 7.53969C15.1592 7.53969 15.2195 7.53969 15.2999 7.55979C16.0639 7.66032 16.647 8.32381 16.647 9.08783C16.647 9.51006 16.4661 9.91217 16.1645 10.2138Z" fill="#5E3380"/>
  <path d="M30.6612 13.8127C29.9977 6.07195 23.5036 0 15.602 0C15.1396 0 14.6972 0.0201058 14.2549 0.0603174C13.8729 0.100529 13.511 0.140741 13.129 0.201058C8.78612 0.904761 5.06655 3.4783 2.8147 7.03703C1.32687 9.36931 0.482422 12.1439 0.482422 15.1196C0.482422 15.3809 0.482422 15.6423 0.502528 15.9037C0.643268 18.819 1.62845 21.5132 3.19671 23.7651C3.51066 24.2277 3.86535 24.6632 4.23846 25.0827C4.36409 25.224 4.58747 25.2113 4.69913 25.0588L10.9803 16.4777C11.0039 16.4456 11.0104 16.404 10.9978 16.3661C10.656 15.1196 10.1131 13.9534 9.36919 12.9079L9.32898 12.8677C9.28876 12.8074 9.26866 12.7873 9.24855 12.7471L9.22845 12.727C8.96707 12.4053 8.62527 12.164 8.18295 12.0233C8.08242 11.9831 7.96178 11.963 7.82104 11.963H7.78083C7.74062 11.963 7.6803 11.963 7.61998 11.963H7.57977H7.47924C7.41893 11.963 7.37871 11.963 7.3184 11.963L4.72475 12.0233C4.24221 12.0434 4.02104 11.4402 4.38295 11.1386L6.37342 9.46983C6.71522 9.18835 7.07713 8.92698 7.45914 8.68571C7.94168 8.40423 8.44432 8.16296 8.98718 7.98201C10.1734 5.91111 12.1237 4.38307 14.4157 3.73968C15.1999 3.51852 16.0242 3.41799 16.8284 3.41799C20.4475 3.41799 23.7046 5.56931 25.1321 8.88677C25.2528 9.18835 25.3734 9.51005 25.4739 9.81163C26.057 11.5608 26.3385 13.3704 26.3385 15.2201C26.3385 17.9746 25.7152 20.5883 24.4686 23.0211C23.3025 25.3333 21.5734 27.3841 19.4824 28.9524L19.4623 28.9725C19.2612 29.1132 19.0602 29.2539 18.8591 29.3947C18.6729 29.5227 18.4866 29.6508 18.3004 29.7749C18.21 29.8352 18.2651 29.9772 18.3719 29.9574C25.3944 28.6548 30.7014 22.4925 30.7014 15.0995C30.7014 14.6772 30.7014 14.2349 30.6612 13.8127Z" fill="#5E3380"/>
  <path d="M36.252 7.17773H48.5567V10.3746H39.8107V13.6719H47.5112V16.8687H39.8107V20.3068H48.6773V23.5036H36.252V7.17773Z" fill="#5E3380"/>
  <path d="M52.0757 19.9449V14.0338H50.5879V10.9978H52.0757V7.80103H55.6143V10.9978H58.5699V14.0338H55.6344V19.382C55.6344 20.2063 55.9762 20.5883 56.7805 20.5883C57.4239 20.5883 58.0069 20.4275 58.5297 20.146V23.001C57.7858 23.4433 56.9212 23.7248 55.735 23.7248C53.5434 23.7047 52.0757 22.8402 52.0757 19.9449Z" fill="#5E3380"/>
  <path d="M60.1582 10.9979H63.7571L65.7677 18.5777L68.1201 10.9576H71.1762L73.5487 18.5978L75.5995 10.9979H79.118L75.2174 23.5841H72.0206L69.628 15.9238L67.1751 23.6042H63.9984L60.1582 10.9979Z" fill="#5E3380"/>
  <path d="M80.5254 6.47406H84.2651V9.63067H80.5254V6.47406ZM80.6259 10.9979H84.1645V23.5037H80.6259V10.9979Z" fill="#5E3380"/>
  <path d="M85.8926 17.2709C85.8926 13.7121 88.627 10.7566 92.4471 10.7566C94.7995 10.7566 96.2471 11.6412 97.4132 12.9481L95.3423 15.0391C94.5783 14.3153 93.8344 13.8127 92.427 13.8127C90.6577 13.8127 89.391 15.3809 89.391 17.2709C89.391 19.1809 90.6174 20.7291 92.5677 20.7291C93.754 20.7291 94.5783 20.2063 95.4428 19.4021L97.5137 21.4931C96.3074 22.8201 94.9 23.7852 92.4069 23.7852C88.6471 23.7852 85.8926 20.8899 85.8926 17.2709Z" fill="#5E3380"/>
  <path d="M99.4238 6.47406H102.962V15.5418L107.104 10.9979H111.347L106.622 15.9238L111.548 23.5037H107.486L104.209 18.3968L102.983 19.7037V23.5037H99.4439V6.47406H99.4238Z" fill="#5E3380"/>
  <path d="M111.588 17.2709C111.588 13.7121 114.121 10.7566 117.76 10.7566C121.942 10.7566 123.852 13.9936 123.852 17.5524C123.852 17.8338 123.832 18.1555 123.812 18.4772H115.106C115.448 20.0857 116.574 20.9301 118.162 20.9301C119.349 20.9301 120.213 20.5481 121.198 19.6434L123.229 21.4328C122.063 22.8804 120.374 23.765 118.122 23.765C114.362 23.7852 111.588 21.1513 111.588 17.2709ZM120.394 16.2656C120.193 14.6772 119.248 13.6116 117.76 13.6116C116.293 13.6116 115.328 14.6571 115.046 16.2656H120.394Z" fill="#5E3380"/>
  <path d="M126.527 19.9449V14.0338H125.039V10.9978H126.527V7.80103H130.066V10.9978H133.001V14.0338H130.066V19.382C130.066 20.2063 130.407 20.5883 131.212 20.5883C131.855 20.5883 132.438 20.4275 132.961 20.146V23.001C132.217 23.4433 131.352 23.7248 130.166 23.7248C127.995 23.7047 126.527 22.8402 126.527 19.9449Z" fill="#5E3380"/>
</svg>
