<svg width="20" height="16" viewBox="0 0 20 16" fill="none" xmlns="http://www.w3.org/2000/svg">
  <path fill-rule="evenodd" clip-rule="evenodd" d="M3.00018 0C1.34333 0 0.000183102 1.34315 0.000183102 3V3.97998C-6.13693e-05 3.99273 -6.06984e-05 4.00548 0.000183102 4.01821V13C0.000183102 14.6569 1.34333 16 3.00018 16H17.0002C18.657 16 20.0002 14.6569 20.0002 13V4.01814C20.0004 4.00546 20.0004 3.99276 20.0002 3.98005V3C20.0002 1.34315 18.657 0 17.0002 0H3.00018ZM18.0002 3.4116V3C18.0002 2.44772 17.5525 2 17.0002 2H3.00018C2.4479 2 2.00018 2.44772 2.00018 3V3.4116L10.0002 7.85604L18.0002 3.4116ZM2.00018 5.69951V13C2.00018 13.5523 2.4479 14 3.00018 14H17.0002C17.5525 14 18.0002 13.5523 18.0002 13V5.69951L10.4858 9.87416C10.1838 10.0419 9.81656 10.0419 9.51454 9.87416L2.00018 5.69951Z" fill="white"/>
</svg>
