<svg width="16" height="20" viewBox="0 0 16 20" fill="none" xmlns="http://www.w3.org/2000/svg">
  <path fill-rule="evenodd" clip-rule="evenodd" d="M8 5C6.34315 5 5 6.34315 5 8C5 9.65685 6.34315 11 8 11C9.65685 11 11 9.65685 11 8C11 6.34315 9.65685 5 8 5ZM7 8C7 7.44772 7.44772 7 8 7C8.55228 7 9 7.44772 9 8C9 8.55228 8.55228 9 8 9C7.44772 9 7 8.55228 7 8Z" fill="white"/>
  <path fill-rule="evenodd" clip-rule="evenodd" d="M7.41823 19.8134C7.41851 19.8136 7.41876 19.8137 8 19L7.41823 19.8134C7.76593 20.0617 8.23354 20.0621 8.58124 19.8137L8 19C8.58124 19.8137 8.58096 19.8139 8.58124 19.8137L8.58246 19.8129L8.58433 19.8115L8.58996 19.8075L8.6087 19.7939C8.62445 19.7824 8.64668 19.7661 8.67494 19.7451C8.73145 19.7031 8.81216 19.6423 8.9136 19.5637C9.1164 19.4064 9.40264 19.1773 9.74454 18.8843C10.4269 18.2994 11.3384 17.4533 12.2526 16.4085C14.0509 14.3532 16 11.3698 16 8C16 3.58172 12.4183 0 8 0C3.58172 0 0 3.58172 0 8C0 11.3698 1.94905 14.3532 3.74742 16.4085C4.66162 17.4533 5.57307 18.2994 6.25546 18.8843C6.59736 19.1773 6.8836 19.4064 7.0864 19.5637C7.18784 19.6423 7.26855 19.7031 7.32506 19.7451C7.35332 19.7661 7.37555 19.7824 7.3913 19.7939L7.41004 19.8075L7.41567 19.8115L7.41823 19.8134ZM2 8C2 4.68629 4.68629 2 8 2C11.3137 2 14 4.68629 14 8C14 10.6302 12.4491 13.1468 10.7474 15.0915C9.91162 16.0467 9.07307 16.8256 8.44296 17.3657C8.27953 17.5058 8.13061 17.6294 8 17.7354C7.86939 17.6294 7.72047 17.5058 7.55704 17.3657C6.92693 16.8256 6.08838 16.0467 5.25258 15.0915C3.55095 13.1468 2 10.6302 2 8Z" fill="white"/>
</svg>
